# xmcd CD database file
#
# Track frame offsets:
#	150
#	13747
#	25515
#	39550
#	54100
#	67110
#	80592
#	100420
#	113647
#	126672
#	140810
#	155010
#	167792
#	180920
#	195420
#	209490
#	222617
#	235502
#	249657
#	264180
#	275492
#	289675
#
# Disc length: 4049 seconds
#
# Revision: 0
# Processed by: cddbd v1.5.1PL0 Copyright (c) Steve Scherf et al.
# Submitted via: CDex 1.51
#
DISCID=420fcf16
DTITLE=Connie Boswell - Deep In a Dream
DYEAR=1996
DGENRE=Jazz
TTITLE0=Amapola
TTITLE1=A New Moon Is Over My Shoulder
TTITLE2=On The Beach At Bali-Bali
TTITLE3=All I Do Is Dream Of You
TTITLE4=Gypsy Love Song
TTITLE5=Underneath The Arches
TTITLE6=Way Down Yonder In New Orleans
TTITLE7=Look For The Silver Lining
TTITLE8=The Panic Is On
TTITLE9=Thanks For Everything
TTITLE10=Yes, Indeed (With Bing Crosby)
TTITLE11=Ebb Tide
TTITLE12=Ah! Sweet Mystery Of Life
TTITLE13=I'm All Dressed Up With A Broken Heart
TTITLE14=The Carioca
TTITLE15=Deep In A Dream
TTITLE16=One Dozen Roses
TTITLE17=Blue Moon
TTITLE18=Sand In My Shoes
TTITLE19=Start The Day Right (With Bing Crosby)
TTITLE20=Lullaby Of The Leaves
TTITLE21=Martha (Ah! So Pure)
EXTD=YEAR: 1996
EXTT0=
EXTT1=
EXTT2=
EXTT3=
EXTT4=
EXTT5=
EXTT6=
EXTT7=
EXTT8=
EXTT9=
EXTT10=
EXTT11=
EXTT12=
EXTT13=
EXTT14=
EXTT15=
EXTT16=
EXTT17=
EXTT18=
EXTT19=
EXTT20=
EXTT21=
PLAYORDER=
